#N canvas 893 485 833 452 10;
#X declare -lib mrpeach;
#X obj 39 61 bng 15 250 50 0 empty empty empty 17 7 0 10 -262144 -1
-1;
#X floatatom 98 235 5 0 0 0 - - -;
#X obj 355 65 snapshot~;
#X obj 365 27 osc~ 0.1;
#X obj 301 27 receive m;
#X obj 38 113 send m;
#X obj 485 67 snapshot~;
#X obj 431 29 receive m;
#X obj 624 67 snapshot~;
#X obj 570 29 receive m;
#X obj 495 29 osc~ 0.091;
#X obj 634 29 osc~ 0.083;
#X obj 111 286 pack f f f;
#X obj -6 30 import mrpeach;
#X obj 112 373 packOSC;
#X obj 113 403 udpsend;
#X obj 38 89 metro 10;
#X msg -47 321 connect localhost 7891;
#X msg 108 333 send /joint/torso \$1 \$2 \$3;
#X floatatom 160 235 5 0 0 0 - - -;
#X floatatom 214 235 5 0 0 0 - - -;
#X obj 101 71 vsl 15 128 0 127 0 0 empty empty empty 0 -9 0 10 -262144
-1 -1 5900 1;
#X obj 103 207 / 127;
#X obj 158 71 vsl 15 128 0 127 0 0 empty empty empty 0 -9 0 10 -262144
-1 -1 6500 1;
#X obj 160 207 / 127;
#X obj 213 70 vsl 15 128 0 127 0 0 empty empty empty 0 -9 0 10 -262144
-1 -1 5600 1;
#X obj 215 206 / 127;
#X obj 21 249 receive m;
#X connect 0 0 17 0;
#X connect 0 0 16 0;
#X connect 1 0 12 0;
#X connect 3 0 2 0;
#X connect 4 0 2 0;
#X connect 7 0 6 0;
#X connect 9 0 8 0;
#X connect 10 0 6 0;
#X connect 11 0 8 0;
#X connect 12 0 18 0;
#X connect 14 0 15 0;
#X connect 16 0 5 0;
#X connect 17 0 15 0;
#X connect 18 0 14 0;
#X connect 19 0 12 1;
#X connect 20 0 12 2;
#X connect 21 0 22 0;
#X connect 22 0 1 0;
#X connect 23 0 24 0;
#X connect 24 0 19 0;
#X connect 25 0 26 0;
#X connect 26 0 20 0;
#X connect 27 0 12 0;
