#N canvas 702 226 676 454 10;
#X declare -lib mrpeach;
#X obj 39 61 bng 15 250 50 0 empty empty empty 17 7 0 10 -262144 -1
-1;
#X floatatom 110 239 5 0 0 0 - - -;
#X obj 109 197 snapshot~;
#X obj 119 159 osc~ 0.1;
#X obj 55 159 receive m;
#X obj 38 113 send m;
#X obj 239 199 snapshot~;
#X obj 185 161 receive m;
#X obj 378 199 snapshot~;
#X obj 324 161 receive m;
#X obj 249 161 osc~ 0.091;
#X obj 388 161 osc~ 0.083;
#X obj 109 281 pack f f f;
#X obj -6 30 import mrpeach;
#X obj 110 368 packOSC;
#X obj 111 398 udpsend;
#X msg -47 321 connect localhost 50001;
#X msg 106 328 send /input_position \$1 \$2 \$3;
#X msg 202 362 sendtyped /input_position fff 0.5 -0.8 0.1;
#X obj 38 89 metro 10;
#X connect 0 0 16 0;
#X connect 0 0 19 0;
#X connect 2 0 1 0;
#X connect 2 0 12 0;
#X connect 3 0 2 0;
#X connect 4 0 2 0;
#X connect 4 0 12 0;
#X connect 6 0 12 1;
#X connect 7 0 6 0;
#X connect 8 0 12 2;
#X connect 9 0 8 0;
#X connect 10 0 6 0;
#X connect 11 0 8 0;
#X connect 12 0 17 0;
#X connect 14 0 15 0;
#X connect 16 0 15 0;
#X connect 17 0 14 0;
#X connect 18 0 14 0;
#X connect 19 0 5 0;
